<svg id="routing" width="24" height="25" viewBox="0 0 24 25" fill="none" xmlns="http://www.w3.org/2000/svg">
<path fill-rule="evenodd" clip-rule="evenodd" d="M11.0004 2.5C11.0004 1.94772 11.4481 1.5 12.0004 1.5H16.0004C16.5527 1.5 17.0004 1.94772 17.0004 2.5C17.0004 3.05228 16.5527 3.5 16.0004 3.5H14.4146L19.2075 8.29289C20.9787 10.0641 20.9787 12.9359 19.2075 14.7071C17.4362 16.4783 14.5645 16.4783 12.7933 14.7071L9.79327 11.7071C8.80308 10.7169 7.19767 10.7169 6.20748 11.7071C5.2173 12.6973 5.2173 14.3027 6.20749 15.2929L10.4823 19.5677C10.6476 19.5236 10.8212 19.5 11.0004 19.5C12.1049 19.5 13.0004 20.3954 13.0004 21.5C13.0004 22.6046 12.1049 23.5 11.0004 23.5C9.89581 23.5 9.00038 22.6046 9.00038 21.5C9.00038 21.3208 9.02393 21.1472 9.06812 20.982L4.79327 16.7071C3.02204 14.9359 3.02203 12.0641 4.79327 10.2929C6.56451 8.52166 9.43625 8.52166 11.2075 10.2929L14.2075 13.2929C15.1977 14.2831 16.8031 14.2831 17.7933 13.2929C18.7835 12.3027 18.7835 10.6973 17.7933 9.70711L13.0004 4.91421V6.5C13.0004 7.05228 12.5527 7.5 12.0004 7.5C11.4481 7.5 11.0004 7.05228 11.0004 6.5V2.5Z" fill="#6C86AD"/>
</svg>
