<svg width="24" height="24" viewBox="0 0 24 24" fill="none" xmlns="http://www.w3.org/2000/svg">
<path d="M12 2C6.48 2 2 6.48 2 12C2 17.52 6.48 22 12 22C17.52 22 22 17.52 22 12C22 6.48 17.52 2 12 2ZM12 20C7.59 20 4 16.41 4 12C4 7.59 7.59 4 12 4C16.41 4 20 7.59 20 12C20 16.41 16.41 20 12 20ZM11.6334 6C11.2584 6 10.9227 6.23256 10.7909 6.58365L7.08297 16.4594C6.98478 16.7209 7.1781 17 7.45745 17H8.42722C8.63873 17 8.82736 16.8669 8.89828 16.6676L9.78 14.19H14.22L15.0924 16.6661C15.1629 16.8662 15.3519 17 15.564 17H16.5326C16.8119 17 17.0052 16.7209 16.907 16.4594L13.1991 6.58365C13.0673 6.23256 12.7316 6 12.3566 6H11.6334ZM10.35 12.59L11.95 8.04H12.04L13.64 12.59H10.35Z" fill="#6C86AD"/>
</svg>
